<?xml version="1.0" encoding="UTF-8"?>
<svg width="20px" height="20px" viewBox="0 0 20 20" version="1.1" xmlns="http://www.w3.org/2000/svg" xmlns:xlink="http://www.w3.org/1999/xlink">
    <!-- Generator: Sketch 59.1 (86144) - https://sketch.com -->
    <title>编组 9备份 2</title>
    <desc>Created with Sketch.</desc>
    <g id="组件" stroke="none" stroke-width="1" fill="none" fill-rule="evenodd">
        <g id="编组-9备份" fill="#FFFFFF" fill-rule="nonzero">
            <path d="M17.4567469,2.5 L2.49379062,2.5 C1.11446811,2.5 3.21520588e-13,3.614298 3.21520588e-13,4.99089881 L3.21520588e-13,14.6362478 C3.21520588e-13,16.0128699 1.11446811,17.1284011 2.49379062,17.1284011 L17.4567469,17.1284011 C18.8309238,17.1284011 19.9505588,16.0128699 19.9505588,14.6362478 L19.9505588,4.99089881 C19.9505588,3.61429798 18.8309238,2.5 17.4567469,2.5 Z M17.3592126,8.10772245 L10.3350847,12.6349767 C10.2259407,12.7063572 10.10002,12.7415053 9.97529006,12.7415053 C9.85062392,12.7415053 9.72457567,12.7063785 9.61551673,12.6349767 L2.58862452,8.10772245 C2.27941506,7.90912417 2.19115153,7.49740482 2.38864414,7.18825916 C2.58862452,6.88047434 2.99902556,6.79216828 3.308235,6.99087288 L9.97529008,11.2856778 L16.6397085,6.99087288 C16.944963,6.79216828 17.359234,6.88049562 17.5580874,7.18825916 C17.7580678,7.49740482 17.6684221,7.90912417 17.3592126,8.10772245 Z" id="形状"></path>
        </g>
    </g>
</svg>