<?xml version="1.0" encoding="UTF-8"?>
<svg width="32px" height="32px" viewBox="0 0 32 32" version="1.1" xmlns="http://www.w3.org/2000/svg" xmlns:xlink="http://www.w3.org/1999/xlink">
    <!-- Generator: Sketch 59.1 (86144) - https://sketch.com -->
    <title>4</title>
    <desc>Created with Sketch.</desc>
    <g id="组件" stroke="none" stroke-width="1" fill="none" fill-rule="evenodd">
        <g id="底部备份-5" transform="translate(-1590.000000, -40.000000)" fill="#FFFFFF" fill-rule="nonzero">
            <g id="编组-23备份">
                <g id="编组-11" transform="translate(1420.000000, 40.000000)">
                    <path d="M186,0 C194.836381,0 202,7.1636194 202,16 C202,24.8363806 194.836381,32 186,32 C177.163619,32 170,24.8363806 170,16 C170,7.1636194 177.163619,0 186,0 Z M186,2.39999813 C178.488793,2.39999813 172.399998,8.48879337 172.399998,16 C172.399998,23.5112066 178.488793,29.6000019 186,29.6000019 C193.511207,29.6000019 199.600002,23.5112066 199.600002,16 C199.600002,8.48879337 193.511207,2.39999813 186,2.39999813 Z M192.859982,21.2747834 L192.902807,21.2775959 C193.05811,21.299172 193.17917,21.4230392 193.197182,21.5787956 L193.199994,21.6219956 L193.199994,23.011182 L193.198007,23.0871945 C193.160807,23.7935814 192.606782,24.3595685 191.915208,24.3980059 L191.839983,24.3999934 L191.765583,24.3980059 C191.074009,24.359606 190.520396,23.7939939 190.482784,23.0871945 L190.480796,23.011182 L190.480796,21.6219956 L190.483609,21.5787956 C190.501621,21.4230392 190.622681,21.299172 190.777984,21.2775959 L190.820396,21.2747834 L190.863184,21.2775959 C191.018662,21.2989837 191.139951,21.4228953 191.158008,21.5787956 L191.160408,21.6219956 L191.160408,23.011182 L191.162808,23.071182 C191.190783,23.4068067 191.452796,23.673994 191.781595,23.7032065 L191.839983,23.7056065 L191.898783,23.702794 C192.227208,23.673994 192.489182,23.4068067 192.517195,23.070807 L192.520007,23.010807 L192.520007,21.6219956 C192.520007,21.4303708 192.671995,21.2747834 192.859982,21.2747834 L192.859982,21.2747834 Z M186.954787,21.2739959 L186.997612,21.2768084 C187.153076,21.2982119 187.274345,21.4221198 187.292399,21.5780081 L187.294799,21.6215831 L187.294799,23.0103945 L187.292811,23.086407 C187.255612,23.7927939 186.701587,24.358781 186.010012,24.3971809 L185.935613,24.3992059 L185.8608,24.3971809 C185.169601,24.358781 184.615201,23.7927939 184.578001,23.086407 L184.576014,23.0103945 L184.576014,21.6215831 L184.578414,21.5775956 C184.596642,21.4218674 184.717872,21.2981708 184.873201,21.2768084 L184.915988,21.2739959 L184.958813,21.2768084 C185.114116,21.2983845 185.235177,21.4222517 185.253188,21.5780081 L185.255588,21.6215831 L185.255588,23.0103945 L185.257988,23.0703945 C185.286001,23.4060192 185.548388,23.6735815 185.876813,23.7023815 L185.935613,23.7047815 L185.994,23.7023815 C186.3228,23.6735815 186.584812,23.4059817 186.612787,23.0703945 L186.615187,23.0103945 L186.615187,21.6215831 C186.615187,21.4295833 186.767212,21.2739959 186.955199,21.2739959 L186.954787,21.2739959 Z M179.140018,21.2739959 L179.184418,21.2768084 C179.243835,21.2848328 179.300033,21.3085753 179.347205,21.3455833 L179.381218,21.3759958 L180.244017,22.2599826 L181.106816,21.3759958 L181.141616,21.3452083 C181.262563,21.2507654 181.432269,21.2507654 181.553216,21.3452083 L181.588016,21.3767833 L181.618391,21.4124083 C181.709591,21.5351832 181.710416,21.705583 181.620416,21.8288079 L181.587191,21.8679954 L180.585604,22.8943696 L180.585604,24.0519937 L180.582792,24.0956062 C180.564605,24.2512025 180.443585,24.3748586 180.288417,24.3963934 L180.245592,24.3992059 L180.203217,24.3963934 C180.04781,24.3751719 179.926498,24.2514068 179.908392,24.0956062 L179.905992,24.0519937 L179.905992,22.8975946 L178.900806,21.8679954 L178.870806,21.8336079 C178.815791,21.760321 178.791412,21.6685214 178.802818,21.5775956 L178.811593,21.5319957 L178.825993,21.4880082 C178.877451,21.3594266 179.001526,21.2747043 179.140018,21.2735834 L179.140018,21.2739959 Z M183.046802,21.2739959 L183.121202,21.2763959 C183.812814,21.3143833 184.366801,21.8804079 184.404414,22.5867949 L184.406401,22.6631823 L184.406401,23.0103945 L184.404414,23.086407 C184.366801,23.7927939 183.812814,24.358781 183.121202,24.3971809 L183.046802,24.3992059 L182.97199,24.3971809 C182.28079,24.358781 181.726391,23.7927939 181.689191,23.086407 L181.687203,23.0103945 L181.687203,22.6631823 C181.687203,21.8960079 182.296015,21.2739959 183.046802,21.2739959 Z M187.974786,21.2739959 L188.017198,21.2768084 C188.172662,21.2982119 188.293932,21.4221198 188.311986,21.5780081 L188.314386,21.6215831 L188.314386,24.0519937 L188.311986,24.0956062 C188.293883,24.2513948 188.172591,24.3751562 188.017198,24.3963934 L187.974823,24.3992059 L187.931998,24.3963934 C187.776767,24.3749834 187.655684,24.2512628 187.637624,24.0956062 L187.634811,24.0519937 L187.634811,21.6216206 C187.634811,21.4296208 187.786799,21.2739959 187.974786,21.2739959 L187.974786,21.2739959 Z M189.919197,21.2736209 L189.960822,21.2759834 C190.027197,21.2840084 190.091584,21.3123958 190.144797,21.3608083 L190.181997,21.4007833 L190.209597,21.4403832 C190.280543,21.5674082 190.269225,21.7244444 190.180797,21.8399829 L190.149184,21.8768079 L189.21161,22.8347822 L190.158784,23.8023939 L190.182784,23.8287939 L190.203597,23.8575939 L190.221597,23.8887938 L190.241209,23.9367938 C190.277421,24.0457563 190.258475,24.1655174 190.190397,24.257981 L190.159609,24.293981 L190.123984,24.326006 C190.03449,24.3952241 189.916119,24.4146283 189.80921,24.377606 L189.76241,24.357581 L189.731997,24.339581 L189.703985,24.317606 L189.677997,24.293606 L188.602798,23.1947819 L188.566423,23.1536069 C188.419981,22.9662949 188.419981,22.703307 188.566423,22.5159949 L188.602798,22.4747824 L189.678785,21.3747958 C189.74197,21.3099834 189.828681,21.2734785 189.919197,21.2735832 L189.919197,21.2736209 Z M183.046802,21.9687953 L182.988002,21.9711953 C182.659615,21.9999953 182.39719,22.2671826 182.369215,22.6031823 L182.366815,22.6631823 L182.366815,23.0103945 C182.366815,23.3735817 182.640003,23.6720065 182.988002,23.7023815 L183.046802,23.7047815 L183.10519,23.7023815 C183.43399,23.6735815 183.695589,23.4059817 183.723602,23.0703945 L183.726414,23.0103945 L183.726414,22.6631823 L183.723602,22.6031823 C183.693977,22.2476076 183.402415,21.9687953 183.046802,21.9687953 L183.046802,21.9687953 Z M184.872001,7.87881884 L184.953601,7.92479381 L190.071972,10.9439915 C192.146395,12.1676155 192.178383,15.1984006 190.167972,16.4775996 L190.071972,16.5359871 L189.867972,16.4159872 L190.071972,16.5363996 L184.953976,19.5555972 C183.820389,20.2244092 182.37079,19.8272095 181.716003,18.6692104 C181.077191,17.5383988 181.432016,16.1000124 182.50399,15.410013 L182.584015,15.360813 L184.709214,14.107189 L188.87801,15.8320001 L185.331188,13.7399893 L182.58319,12.119203 C181.450016,11.4503911 181.061216,9.97041721 181.716003,8.81159312 C182.35519,7.681194 183.751614,7.27559432 184.872001,7.87960634 L184.872001,7.87881884 Z" id="4"></path>
                </g>
            </g>
        </g>
    </g>
</svg>