<?xml version="1.0" encoding="UTF-8"?>
<svg width="18px" height="20px" viewBox="0 0 18 20" version="1.1" xmlns="http://www.w3.org/2000/svg" xmlns:xlink="http://www.w3.org/1999/xlink">
    <!-- Generator: Sketch 59.1 (86144) - https://sketch.com -->
    <title>编组 12</title>
    <desc>Created with Sketch.</desc>
    <g id="组件" stroke="none" stroke-width="1" fill="none" fill-rule="evenodd">
        <g id="底部备份" transform="translate(-1421.000000, -133.000000)" fill="#FFFFFF" fill-rule="nonzero">
            <g id="编组-23备份">
                <g id="编组-10" transform="translate(1420.000000, 132.000000)">
                    <g id="编组-13">
                        <g id="编组-12" transform="translate(0.000000, 1.000000)">
                            <path d="M14.872202,19.4342517 L14.8718072,19.4342517 L14.775834,19.4320908 C12.542768,19.3178746 9.52712221,17.2160835 6.70807716,13.8096673 L5.66677065,12.5519587 C2.8477256,9.14529311 1.3707891,5.81814467 1.71618055,3.65165115 C1.95994717,2.12320617 4.23234578,0.833333333 5.5307999,0.833333333 C6.17034445,0.833333333 6.4020391,1.15158882 6.48305223,1.3416445 C7.21809212,2.64791113 8.12758348,4.9195825 8.13178062,5.7343473 L8.13202995,5.79231771 L8.11125203,5.84646498 C7.94914265,6.27473958 7.58640163,6.4799216 7.2664008,6.66089733 C6.84481669,6.89913702 6.60522643,7.05557402 6.57595033,7.50593556 C6.56726516,7.64261275 6.68515911,8.2643714 8.54499122,10.5570077 L9.34014166,11.5171556 C11.2051267,13.7181197 11.7918953,13.9550296 11.929279,13.9746232 C12.3790172,14.0371648 12.5907858,13.8399823 12.9142357,13.4854277 C13.1604749,13.2154394 13.4398341,12.9090481 13.9007509,12.8415406 L13.9591161,12.8332294 L14.0165047,12.8454053 C14.8286722,13.0166777 16.9075868,14.3564799 18.087773,15.3511608 C18.2581727,15.464255 18.5555464,15.8000055 18.3200702,16.5417151 C17.9506802,17.706588 16.3403287,19.4342517 14.8721812,19.4342517 L14.872202,19.4342517 Z" id="路径"></path>
                        </g>
                    </g>
                </g>
            </g>
        </g>
    </g>
</svg>