<?xml version="1.0" encoding="UTF-8"?>
<svg width="32px" height="32px" viewBox="0 0 32 32" version="1.1" xmlns="http://www.w3.org/2000/svg" xmlns:xlink="http://www.w3.org/1999/xlink">
    <!-- Generator: Sketch 59.1 (86144) - https://sketch.com -->
    <title>2</title>
    <desc>Created with Sketch.</desc>
    <g id="组件" stroke="none" stroke-width="1" fill="none" fill-rule="evenodd">
        <g id="底部备份-5" transform="translate(-1474.000000, -40.000000)" fill="#FFFFFF" fill-rule="nonzero">
            <g id="编组-23备份">
                <g id="编组-11" transform="translate(1420.000000, 40.000000)">
                    <path d="M70,0 C78.836556,0 86,7.163444 86,16 C86,24.836556 78.836556,32 70,32 C61.163444,32 54,24.836556 54,16 C54,7.163444 61.163444,0 70,0 Z M74.0002233,13.454789 C70.7805314,13.454789 68.2522885,15.6563965 68.2522885,18.3543202 C68.2522885,21.0607278 70.7805314,23.2538513 74.0002233,23.2538513 C74.6747042,23.2538513 75.3534271,23.0841706 76.027908,22.9187319 L77.88167,23.9368163 L77.3726278,22.248493 C78.7300737,21.2304086 79.739674,19.8729627 79.739674,18.3543202 C79.739674,15.6521545 77.0375084,13.454789 74.0002233,13.454789 Z M67.1451217,8.05045769 C63.3527573,8.05045769 60.2433579,10.6338468 60.2433579,13.917169 C60.2433579,15.8133512 61.2741683,17.3701719 63.0006698,18.5791471 L62.3134628,20.6577361 L64.7271712,19.4445189 C65.592543,19.6141996 66.283992,19.7881223 67.1408797,19.7881223 C67.3529806,19.7881223 67.5693235,19.7796383 67.7814244,19.7584282 C67.6456798,19.3002902 67.5693235,18.8124581 67.5693235,18.3119 C67.5735655,15.304309 70.1654387,12.8566644 73.4402768,12.8566644 C73.6608618,12.8566644 73.8856888,12.8736325 74.1062737,12.8948426 C73.5123912,10.1120786 70.5387363,8.05045769 67.1451217,8.05045769 Z M72.1337352,16.1611967 C72.6427774,16.1611967 72.9821389,16.4963161 72.9821389,16.8356776 C72.9821389,17.1750391 72.6427774,17.5101585 72.1337352,17.5101585 C71.7986158,17.5101585 71.4592543,17.1750391 71.4592543,16.8356776 C71.4592543,16.5005582 71.7943737,16.1611967 72.1337352,16.1611967 Z M75.8539853,16.1611967 C76.3630275,16.1611967 76.6981469,16.4963161 76.6981469,16.8356776 C76.7023889,17.1750391 76.3545434,17.5101585 75.8539853,17.5101585 C75.5188658,17.5101585 75.1837464,17.1750391 75.1837464,16.8356776 C75.1837464,16.5005582 75.5188658,16.1611967 75.8539853,16.1611967 Z M69.7285108,10.9859344 C70.2460371,10.9859344 70.5896405,11.3295378 70.5896405,11.8513061 C70.5896405,12.3688323 70.2460371,12.7124358 69.7285108,12.7124358 C69.2067426,12.7124358 68.6892163,12.3688323 68.6892163,11.8513061 C68.6977004,11.3295378 69.2152266,10.9859344 69.7285108,10.9859344 Z M64.896852,10.9859344 C65.4186202,10.9859344 65.7622237,11.3295378 65.7622237,11.8513061 C65.7622237,12.3603483 65.4186202,12.7124358 64.896852,12.7124358 C64.3750837,12.7124358 63.8575575,12.3688323 63.8575575,11.8513061 C63.8575575,11.3295378 64.3750837,10.9859344 64.896852,10.9859344 Z" id="2"></path>
                </g>
            </g>
        </g>
    </g>
</svg>