<?xml version="1.0" encoding="UTF-8"?>
<svg width="32px" height="32px" viewBox="0 0 32 32" version="1.1" xmlns="http://www.w3.org/2000/svg" xmlns:xlink="http://www.w3.org/1999/xlink">
    <!-- Generator: Sketch 59.1 (86144) - https://sketch.com -->
    <title>5</title>
    <desc>Created with Sketch.</desc>
    <g id="组件" stroke="none" stroke-width="1" fill="none" fill-rule="evenodd">
        <g id="底部备份-5" transform="translate(-1648.000000, -40.000000)" fill="#FFFFFF" fill-rule="nonzero">
            <g id="编组-23备份">
                <g id="编组-11" transform="translate(1420.000000, 40.000000)">
                    <path d="M244,0 C252.836556,0 260,7.163444 260,16 C260,24.836556 252.836556,32 244,32 C235.163444,32 228,24.836556 228,16 C228,7.163444 235.163444,0 244,0 Z M244.005025,13.9898532 C241.718242,13.9898532 239.415439,13.9898532 237.145746,14.2397864 C236.164113,14.3483655 235.36324,15.0751394 235.160165,16.0416555 C234.842942,17.4269693 234.825853,18.9457944 234.825853,20.3802403 C234.825853,21.7986649 234.825853,23.31749 235.160165,24.7188251 C235.371905,25.6741784 236.159349,26.3945787 237.129724,26.5206943 C239.130659,26.7393859 241.14386,26.7667223 243.147861,26.7701394 L244.006093,26.7706275 C246.292875,26.7706275 248.595679,26.7706275 250.882461,26.5206943 C251.852837,26.3945787 252.640281,25.6741784 252.852021,24.7188251 C253.186333,23.3164219 253.186333,21.7986649 253.186333,20.3802403 L253.184197,20.3802403 C253.184197,18.9447263 253.184197,17.4259012 252.866974,16.0416555 C252.633062,15.0568758 251.831994,14.3391188 250.881393,14.2397864 C248.6117,13.9898532 246.308897,13.9898532 244.005025,13.9898532 Z M250.164704,18.1436582 C250.715839,18.1436582 251.166574,18.3604806 251.466707,18.7781041 C251.700619,19.0953271 251.817041,19.5620828 251.817041,20.2136182 L251.817041,21.48251 L249.597548,21.48251 L249.597548,22.5676902 C249.597548,23.1348465 249.78126,23.4189586 250.164704,23.4189586 C250.431727,23.4189586 250.598349,23.2683578 250.665639,22.9853138 C250.665639,22.918024 250.682728,22.6680908 250.682728,22.2344459 L251.815,22.234 L251.815973,22.3839787 C251.815973,22.7514019 251.798883,22.9842457 251.782862,23.1017357 C251.752975,23.3407561 251.667365,23.5694153 251.532929,23.7692924 C251.232795,24.2200267 250.764971,24.4368491 250.197815,24.4368491 C249.61357,24.4368491 249.162835,24.2200267 248.845612,23.8024032 C248.6117,23.5022697 248.495278,23.0184246 248.495278,22.3668892 L248.495278,20.2136182 C248.495278,19.5631509 248.595679,19.0953271 248.829591,18.7781041 C249.146814,18.3604806 249.597548,18.1436582 250.164704,18.1436582 Z M241.33373,18.2269693 L241.33373,22.7332443 C241.33373,22.9831776 241.33373,23.1337784 241.350819,23.1668892 C241.367909,23.3335114 241.45122,23.4168224 241.600752,23.4168224 C241.834664,23.4168224 242.051487,23.2502003 242.30142,22.8998665 L242.30142,18.2269693 L243.419711,18.2269693 L243.420779,18.2280374 L243.420779,24.35247 L242.302488,24.35247 L242.302488,23.6849132 C241.868843,24.1858478 241.45122,24.435781 241.033596,24.435781 C240.683262,24.435781 240.433329,24.2851803 240.332929,23.9679573 C240.265639,23.7842456 240.232528,23.5001335 240.232528,23.0664887 L240.232528,18.2269693 L241.33373,18.2269693 Z M245.491807,16.1238985 L245.491807,18.811215 C245.842141,18.3775701 246.226654,18.1436582 246.62612,18.1436582 C247.076854,18.1436582 247.376987,18.3775701 247.510499,18.8443258 C247.59381,19.094259 247.626921,19.494793 247.626921,20.0790387 L247.626921,22.5164219 C247.626921,23.0675567 247.59381,23.4841121 247.510499,23.7351135 C247.376987,24.2029373 247.076854,24.435781 246.62612,24.435781 C246.242675,24.435781 245.858162,24.2018692 245.491807,23.7511348 L245.491807,24.3514019 L244.373516,24.3514019 L244.373516,16.1238985 L245.491807,16.1238985 Z M240.066974,16.1249666 L240.066974,17.2934579 L238.731861,17.2934579 L238.731861,24.35247 L237.497148,24.35247 L237.497148,17.2934579 L236.195145,17.2934579 L236.195145,16.1249666 L240.066974,16.1249666 Z M246.040806,19.1455274 C245.857094,19.1455274 245.673383,19.2288384 245.489671,19.4125501 L245.489671,23.1508678 C245.673383,23.3345794 245.857094,23.4178905 246.040806,23.4178905 C246.358029,23.4178905 246.524651,23.1508678 246.524651,22.599733 L246.524651,19.9797063 C246.524651,19.4285714 246.358029,19.1455274 246.040806,19.1455274 Z M251.815973,22.2333778 L251.817041,22.2344459 L251.815,22.234 L251.815973,22.2333778 Z M250.145479,19.1455274 C249.778056,19.1455274 249.594344,19.4296395 249.594344,19.9967957 L249.594344,20.5639519 L250.696614,20.5639519 L250.696614,19.9967957 C250.696614,19.4296395 250.512902,19.1455274 250.145479,19.1455274 Z M243.754023,6.61255006 C243.186867,6.61255006 242.752154,6.82937249 242.452021,7.246996 C242.218109,7.56421895 242.101687,8.04806408 242.101687,8.69853137 L242.101687,10.8678238 C242.101687,11.5182911 242.218109,12.0021362 242.452021,12.3193591 C242.752154,12.7369827 243.186867,12.9538051 243.754023,12.9538051 C244.305158,12.9538051 244.738803,12.7369827 245.056026,12.3193591 C245.289938,12.0192256 245.40636,11.5182911 245.40636,10.8678238 L245.40636,8.69853137 C245.40636,8.04806408 245.289938,7.56421895 245.056026,7.246996 C244.738803,6.82937249 244.305158,6.61255006 243.754023,6.61255006 Z M247.443209,6.69586116 L246.324918,6.69586116 L246.324918,11.5855808 C246.324918,12.0192256 246.358029,12.3033378 246.425319,12.5030708 C246.54174,12.8032043 246.792742,12.9538051 247.143076,12.9538051 C247.560699,12.9538051 247.977254,12.7038718 248.427989,12.2029373 L248.427989,12.870494 L249.54628,12.870494 L249.54628,6.69586116 L248.427989,6.69586116 L248.427989,11.4189586 C248.178056,11.7692924 247.944144,11.9359145 247.727321,11.9359145 C247.57672,11.9359145 247.477388,11.8526035 247.460298,11.6688919 C247.448092,11.6452413 247.444604,11.5703659 247.443608,11.4321992 L247.443209,6.69586116 Z M239.098216,4.57570093 L237.796213,4.57570093 C238.046146,5.34365821 238.330258,6.1105474 238.580192,6.87850467 C238.980726,8.046996 239.230659,8.91428572 239.348149,9.51562082 L239.348149,12.870494 L240.582862,12.870494 L240.582862,9.51562082 L240.58393,9.51562082 L242.085666,4.57570093 L240.833863,4.57570093 L239.982595,7.83017357 L239.098216,4.57570093 Z M243.755092,7.61441922 C244.105425,7.61441922 244.289137,7.91455272 244.289137,8.48170894 L244.289137,11.0857143 C244.289137,11.6528705 244.105425,11.9369827 243.755092,11.9369827 C243.387668,11.9369827 243.221046,11.6528705 243.221046,11.0857143 L243.221046,8.48170894 C243.221046,7.91455272 243.387668,7.61441922 243.755092,7.61441922 Z" id="5"></path>
                </g>
            </g>
        </g>
    </g>
</svg>