<?xml version="1.0" encoding="UTF-8"?>
<svg width="32px" height="32px" viewBox="0 0 32 32" version="1.1" xmlns="http://www.w3.org/2000/svg" xmlns:xlink="http://www.w3.org/1999/xlink">
    <!-- Generator: Sketch 59.1 (86144) - https://sketch.com -->
    <title>1</title>
    <desc>Created with Sketch.</desc>
    <g id="组件" stroke="none" stroke-width="1" fill="none" fill-rule="evenodd">
        <g id="底部备份-5" transform="translate(-1420.000000, -40.000000)" fill="#FFFFFF" fill-rule="nonzero">
            <g id="编组-23备份">
                <g id="编组-11" transform="translate(1420.000000, 40.000000)">
                    <path d="M16,0 C24.836556,0 32,7.163444 32,16 C32,24.836556 24.836556,32 16,32 C7.163444,32 0,24.836556 0,16 C0,7.163444 7.163444,0 16,0 Z M12.3115789,12.7326316 L9.44842105,12.7326316 L9.44842105,22.3326316 L12.3115789,22.3326316 L12.3115789,12.7326316 Z M20.6611149,12.5642105 C19.4484833,12.5642105 18.4547991,13.0357895 17.8990096,14.0294737 L17.8990096,14.0294737 L17.8653254,14.0294737 L17.8653254,12.7326316 L15.1874306,12.7326316 L15.1874306,22.3326316 L18.0505885,22.3326316 L18.0505885,16.4378947 C18.0505885,15.1915789 18.6905885,14.6863158 19.5158517,14.6863158 C20.4421675,14.6863158 20.846378,15.1410526 20.846378,16.4378947 L20.846378,16.4378947 L20.846378,22.3326316 L23.7095359,22.3326316 L23.7095359,15.8315789 C23.7095359,13.5915789 22.3790096,12.5642105 20.6611149,12.5642105 Z M10.88,8.42105263 C9.97052632,8.42105263 9.26315789,8.99368421 9.26315789,10.0378947 C9.26315789,11.1157895 9.97052632,11.7052632 10.88,11.7052632 C11.7894737,11.7052632 12.5473684,11.0652632 12.5473684,10.0378947 C12.5473684,8.99368421 11.7894737,8.42105263 10.88,8.42105263 Z" id="1"></path>
                </g>
            </g>
        </g>
    </g>
</svg>