<?xml version="1.0" encoding="UTF-8"?>
<svg width="32px" height="32px" viewBox="0 0 32 32" version="1.1" xmlns="http://www.w3.org/2000/svg" xmlns:xlink="http://www.w3.org/1999/xlink">
    <!-- Generator: Sketch 59.1 (86144) - https://sketch.com -->
    <title>3</title>
    <desc>Created with Sketch.</desc>
    <g id="组件" stroke="none" stroke-width="1" fill="none" fill-rule="evenodd">
        <g id="底部备份-5" transform="translate(-1532.000000, -40.000000)" fill="#FFFFFF" fill-rule="nonzero">
            <g id="编组-23备份">
                <g id="编组-11" transform="translate(1420.000000, 40.000000)">
                    <path d="M124.852211,18.9890526 C124.290526,18.7545263 123.565053,18.9962105 123.218947,19.5372632 C122.868211,20.0808421 123.032842,20.728 123.589895,20.9810526 C124.155789,21.2383158 124.906526,20.9941052 125.256842,20.4366316 C125.601684,19.8732632 125.420211,19.2303158 124.852211,18.9890526 Z M126.235789,18.4172632 C126.020632,18.3322105 125.751158,18.4353684 125.624842,18.6463158 C125.502316,18.8585263 125.570105,19.1002105 125.785684,19.1890526 C126.005053,19.2791579 126.285895,19.1747368 126.412211,18.9587368 C126.533474,18.7418948 126.454737,18.4972632 126.235789,18.4172632 Z M125.36,14.6661052 C121.736,15.0235789 118.987368,17.2353684 119.223158,19.6058947 C119.458526,21.9781052 122.587368,23.6109473 126.212211,23.2543158 C129.837053,22.8968421 132.584842,20.6850526 132.349474,18.312421 C132.114526,15.9418947 128.985684,14.3090526 125.36,14.6661052 Z M128.540632,20.2593684 C127.800842,21.9267368 125.672842,22.8155789 123.86779,22.2353684 C122.125474,21.6749473 121.387368,19.96 122.150737,18.4151579 C122.899368,16.9006316 124.849263,16.0442105 126.573895,16.4913684 C128.359579,16.9511579 129.270737,18.6294737 128.540632,20.2593684 Z M128,0 C119.163789,0 112,7.16336841 112,16 C112,24.8362105 119.163789,32 128,32 C136.836632,32 144,24.8362105 144,16 C144,7.16336841 136.836632,0 128,0 Z M126.235368,24.8429474 C121.693053,24.8429474 117.049684,22.6492632 117.049684,19.0408421 C117.049684,17.1545263 118.249263,14.9726316 120.314526,12.9136842 C123.072421,10.1658948 126.288421,8.91410528 127.498105,10.12 C128.032,10.6513684 128.083789,11.5717895 127.740632,12.6707368 C127.561684,13.2235789 128.261474,12.9174737 128.261474,12.9187368 C130.490947,11.9886316 132.435368,11.9338948 133.146526,12.9456842 C133.525895,13.4846316 133.488842,14.2416842 133.139789,15.1178948 C132.978105,15.5216842 133.189474,15.5844211 133.498105,15.6766316 C134.753684,16.0648421 136.152,17.0033684 136.152,18.6572632 C136.151158,21.3949474 132.190316,24.8429474 126.235368,24.8429474 Z M134.458526,13.3688421 C134.605895,12.9170526 134.513684,12.4012632 134.170947,12.0231579 C133.828632,11.6458947 133.322947,11.5023158 132.857263,11.600421 L132.857263,11.5995789 C132.467789,11.6837895 132.084632,11.4349473 132.001263,11.0475789 C131.917895,10.6581053 132.166316,10.2757895 132.555789,10.1932632 C133.509895,9.99115791 134.543158,10.2850526 135.242947,11.0593684 C135.944421,11.8332632 136.132211,12.8871579 135.832,13.8113684 C135.709895,14.1894737 135.302737,14.3966316 134.923789,14.2753684 C134.544421,14.1528421 134.336842,13.7465263 134.458947,13.3692632 L134.458526,13.3692632 L134.458526,13.3688421 Z M138.664421,14.7229474 C138.664,14.7233684 138.664,14.7254737 138.664,14.7263158 C138.521263,15.1646316 138.048,15.4046316 137.608421,15.2627368 C137.166737,15.1204211 136.925474,14.6505263 137.067789,14.2105263 L137.067789,14.2101052 C137.505263,12.8610526 137.227789,11.3216842 136.206316,10.192421 C135.184,9.06357894 133.676632,8.63242103 132.284211,8.92715787 C131.831579,9.02357894 131.385684,8.73557894 131.289263,8.2842105 C131.192421,7.83410525 131.481263,7.38947366 131.934316,7.29305259 L131.935158,7.29305259 C133.892211,6.87831575 136.013895,7.4842105 137.452211,9.07326312 C138.890105,10.6597895 139.277895,12.8244211 138.664421,14.7229474 Z" id="3"></path>
                </g>
            </g>
        </g>
    </g>
</svg>